<svg width="64" height="64" viewBox="0 0 64 64" fill="none" xmlns="http://www.w3.org/2000/svg">
<rect width="64" height="64" rx="20" fill="white"/>
<path d="M21.159 42.0504C19.6937 43.1186 17.85 43.6915 15.6796 43.6915C13.3092 43.6915 11.3301 43.1179 9.78897 42.0504H21.159Z" fill="black"/>
<path d="M36.6214 42.0504C35.4989 43.0482 34.1013 43.6915 32.6041 43.6915C30.6678 43.6915 29.126 43.1015 28.1207 42.0504H36.6214Z" fill="black"/>
<path d="M55.0855 42.0504C53.3735 43.1145 51.2318 43.6915 48.7635 43.6915C46.2951 43.6915 44.1534 43.1145 42.4414 42.0504H55.0855Z" fill="black"/>
<path d="M12.6862 39.2832C13.2816 40.0963 14.0288 40.693 14.9159 41.0442H8.60324C8.10266 40.5265 7.6698 39.9381 7.30736 39.2832H12.6862Z" fill="black"/>
<path d="M23.5658 39.2832C23.2025 39.9381 22.7776 40.5266 22.2938 41.0442H19.0308C19.9574 40.6939 20.7564 40.0986 21.4136 39.2832H23.5658Z" fill="black"/>
<path d="M31.5305 39.2832C31.6616 40.0811 31.9996 40.6867 32.507 41.0442H27.3964C27.1209 40.5225 26.938 39.9329 26.8567 39.2832H31.5305Z" fill="black"/>
<path d="M38.6286 39.2832C38.3545 39.9074 37.9956 40.5034 37.5686 41.0442H34.936C35.5066 40.6884 36.035 40.085 36.4848 39.2832H38.6286Z" fill="black"/>
<path d="M44.2873 39.2832C44.7415 40.0503 45.3146 40.6374 46.0035 41.0442H41.107C40.5365 40.5257 40.0357 39.937 39.6108 39.2832H44.2873Z" fill="black"/>
<path d="M57.9156 39.2832C57.4907 39.937 56.99 40.5257 56.4195 41.0442H51.5311C52.2241 40.6374 52.8024 40.0502 53.2616 39.2832H57.9156Z" fill="black"/>
<path d="M11.439 36.516C11.6052 37.1605 11.8198 37.749 12.0804 38.277H6.82724C6.60295 37.7269 6.42081 37.1393 6.28192 36.516H11.439Z" fill="black"/>
<path d="M24.6354 36.516C24.4794 37.1393 24.2849 37.7269 24.0535 38.277H22.0913C22.3875 37.75 22.6403 37.1616 22.8483 36.516H24.6354Z" fill="black"/>
<path d="M31.4692 38.277H26.8083V36.516H31.4692V38.277Z" fill="black"/>
<path d="M43.2991 36.516C43.4255 37.1631 43.5928 37.75 43.8002 38.277H39.0425C39.0311 38.2537 39.0194 38.2304 39.0082 38.207C39.0019 38.2303 38.9952 38.2537 38.9887 38.277H36.9654C37.1818 37.7439 37.3686 37.154 37.5196 36.516H43.2991Z" fill="black"/>
<path d="M59.1478 36.516C58.9753 37.1384 58.7528 37.726 58.4842 38.277H53.7546C53.9648 37.75 54.1347 37.1631 54.2631 36.516H59.1478Z" fill="black"/>
<path d="M11.0404 33.7488C11.0708 34.3679 11.1332 34.9556 11.2264 35.5098H6.0999C6.02041 34.9474 5.97273 34.3601 5.95789 33.7488H11.0404Z" fill="black"/>
<path d="M25.0017 34.4102C24.9622 34.7866 24.911 35.1532 24.8486 35.5098H23.1254C23.2297 35.0591 23.3151 34.5854 23.3805 34.0901L25.0017 34.4102Z" fill="black"/>
<path d="M31.4692 35.5098H26.8083V33.7488H31.4692V35.5098Z" fill="black"/>
<path d="M43.0163 33.7488C43.0328 34.3722 43.0748 34.9592 43.1416 35.5098H37.7212C37.8134 34.9503 37.8794 34.3617 37.9156 33.7488H43.0163Z" fill="black"/>
<path d="M59.5719 33.7488C59.5456 34.3592 59.4799 34.9466 59.3772 35.5098H54.4234C54.4914 34.9592 54.5338 34.3722 54.5506 33.7488H59.5719Z" fill="black"/>
<path d="M31.4692 23.2888H37.8326V25.0891H31.4692V32.7426H26.8083V25.0891H23.4378L24.0696 31.4499L22.489 31.6499C21.3946 26.3692 20.5028 24.489 16.7739 24.329C13.069 24.329 11.045 27.212 11.0192 32.7426H5.96085C6.15129 26.078 9.6173 22.4887 15.8013 22.4887C16.7335 22.4887 17.7873 22.6086 19.0436 22.8886C20.4539 23.1786 21.6864 23.2888 23.259 23.2888C27.7026 23.2888 29.4427 20.4084 30.2939 15.8878H31.4692V23.2888Z" fill="black"/>
<path d="M48.7635 22.4887C55.1579 22.4887 59.4111 26.4839 59.5793 32.7426H54.5558C54.4655 27.2757 52.4467 24.4489 48.7635 24.4488C45.1197 24.4488 43.1016 27.2757 43.0114 32.7426H37.9474C38.1156 26.4839 42.369 22.4887 48.7635 22.4887Z" fill="black"/>
</svg>
