<svg width="688" height="366" viewBox="0 0 688 366" fill="none" xmlns="http://www.w3.org/2000/svg">
<path d="M194.855 344.174C176.072 358.225 152.439 365.762 124.617 365.762C94.2326 365.762 68.8637 358.216 49.1087 344.174H194.855Z" fill="#FBFBFC"/>
<path d="M393.059 344.174C378.671 357.299 360.756 365.762 341.564 365.762C316.743 365.762 296.979 358.001 284.094 344.174H393.059Z" fill="#FBFBFC"/>
<path d="M629.741 344.174C607.796 358.172 580.342 365.762 548.702 365.762C517.062 365.762 489.608 358.171 467.662 344.174H629.741Z" fill="#FBFBFC"/>
<path d="M86.2472 307.771C93.8791 318.467 103.456 326.316 114.829 330.936H33.9094C27.4928 324.126 21.9441 316.386 17.2982 307.771H86.2472Z" fill="#FBFBFC"/>
<path d="M225.706 307.771C221.049 316.386 215.603 324.127 209.402 330.936H167.575C179.452 326.329 189.695 318.497 198.119 307.771H225.706Z" fill="#FBFBFC"/>
<path d="M327.802 307.771C329.482 318.266 333.815 326.234 340.319 330.936H274.808C271.278 324.074 268.933 316.317 267.891 307.771H327.802Z" fill="#FBFBFC"/>
<path d="M418.788 307.771C415.275 315.981 410.674 323.822 405.2 330.936H371.455C378.769 326.256 385.542 318.318 391.308 307.771H418.788Z" fill="#FBFBFC"/>
<path d="M491.324 307.771C497.146 317.861 504.493 325.585 513.323 330.936H450.557C443.245 324.115 436.825 316.371 431.379 307.771H491.324Z" fill="#FBFBFC"/>
<path d="M666.019 307.771C660.572 316.372 654.153 324.115 646.84 330.936H584.178C593.062 325.585 600.475 317.861 606.361 307.771H666.019Z" fill="#FBFBFC"/>
<path d="M70.2597 271.368C72.3898 279.846 75.1401 287.587 78.4814 294.533H11.1438C8.26877 287.296 5.93397 279.566 4.15359 271.368H70.2597Z" fill="#FBFBFC"/>
<path d="M239.417 271.368C237.417 279.567 234.925 287.297 231.959 294.533H206.806C210.603 287.601 213.843 279.861 216.509 271.368H239.417Z" fill="#FBFBFC"/>
<path d="M327.016 294.533H267.271V271.368H327.016V294.533Z" fill="#FBFBFC"/>
<path d="M478.657 271.368C480.277 279.88 482.421 287.601 485.081 294.533H424.094C423.948 294.227 423.798 293.921 423.654 293.612C423.574 293.919 423.487 294.227 423.404 294.533H397.469C400.243 287.52 402.638 279.76 404.573 271.368H478.657Z" fill="#FBFBFC"/>
<path d="M681.813 271.368C679.602 279.556 676.75 287.286 673.307 294.533H612.68C615.375 287.601 617.553 279.88 619.199 271.368H681.813Z" fill="#FBFBFC"/>
<path d="M65.15 234.965C65.5394 243.108 66.3394 250.84 67.5339 258.13H1.82036C0.801435 250.732 0.190329 243.005 0 234.965H65.15Z" fill="#FBFBFC"/>
<path d="M244.112 243.665C243.607 248.617 242.95 253.44 242.15 258.13H220.061C221.399 252.201 222.493 245.97 223.332 239.454L244.112 243.665Z" fill="#FBFBFC"/>
<path d="M327.016 258.13H267.271V234.965H327.016V258.13Z" fill="#FBFBFC"/>
<path d="M475.033 234.965C475.244 243.165 475.782 250.887 476.638 258.13H407.157C408.339 250.77 409.185 243.027 409.648 234.965H475.033Z" fill="#FBFBFC"/>
<path d="M687.249 234.965C686.912 242.994 686.07 250.722 684.754 258.13H621.254C622.125 250.887 622.669 243.165 622.884 234.965H687.249Z" fill="#FBFBFC"/>
<path d="M327.016 97.3612H408.585V121.044H327.016V221.727H267.271V121.044H224.066L232.164 204.722L211.903 207.352C197.875 137.884 186.443 113.15 138.645 111.045C91.1539 111.045 65.2086 148.971 64.8778 221.727H0.0379902C2.47914 134.053 46.908 86.8352 126.178 86.8352C138.127 86.8353 151.635 88.413 167.739 92.0966C185.817 95.9116 201.615 97.3612 221.774 97.3612C278.734 97.3607 301.04 59.4686 311.95 0H327.016V97.3612Z" fill="#FBFBFC"/>
<path d="M548.702 86.8352C630.669 86.8357 685.188 139.393 687.344 221.727H622.951C621.793 149.81 595.916 112.622 548.702 112.622C501.995 112.622 476.126 149.809 474.969 221.727H410.057C412.213 139.393 466.734 86.8352 548.702 86.8352Z" fill="#FBFBFC"/>
</svg>
