<svg width="1252" height="214" viewBox="0 0 1252 214" fill="none" xmlns="http://www.w3.org/2000/svg">
<path d="M686.887 25.6711V142.731C686.887 147.751 682.817 151.821 677.797 151.821H654.877C649.857 151.821 645.787 147.751 645.787 142.731V44.5111C645.787 39.4911 641.717 35.4211 636.697 35.4211H603.577C598.557 35.4211 594.487 39.4911 594.487 44.5111V142.731C594.487 147.751 590.417 151.821 585.397 151.821H562.477C557.457 151.821 553.387 147.751 553.387 142.731V9.42105C553.387 4.40105 557.457 0.331055 562.477 0.331055H582.077C585.307 0.331055 588.297 2.04105 589.927 4.83105C592.457 9.15105 597.987 10.6111 602.317 8.11105L613.677 1.55105C615.057 0.751048 616.627 0.331055 618.227 0.331055H649.657C651.257 0.331055 652.817 0.751048 654.207 1.55105L682.347 17.8111C685.157 19.4311 686.887 22.4411 686.887 25.6811V25.6711Z" fill="#F2F4F8"/>
<path d="M711.887 187.981V177.441C711.887 174.211 713.597 171.231 716.377 169.601L733.267 159.701C739.267 156.181 739.257 147.511 733.247 144.001L722.387 137.671C719.597 136.041 717.877 133.051 717.877 129.821V113.291C717.877 110.041 719.607 107.041 722.427 105.421L725.547 103.621C731.607 100.121 731.607 91.3711 725.547 87.8711L722.427 86.0711C719.617 84.4511 717.877 81.4411 717.877 78.2011V27.2011C717.877 23.9511 719.607 20.9511 722.417 19.3311L750.557 3.07108C751.937 2.27108 753.507 1.85107 755.107 1.85107H845.277C850.297 1.85107 854.367 5.92107 854.367 10.9411V15.8211C854.367 19.0611 852.647 22.0511 849.847 23.6811L840.467 29.1411C834.467 32.6411 834.437 41.3011 840.417 44.8311L840.887 45.1111C843.657 46.7511 845.357 49.7211 845.357 52.9411V74.9011C845.357 78.1511 843.627 81.1511 840.817 82.7711L812.667 99.0311C811.287 99.8311 809.717 100.251 808.117 100.251H768.047C763.027 100.251 758.957 104.321 758.957 109.341V110.661C758.957 115.681 763.027 119.751 768.047 119.751H817.117C818.717 119.751 820.277 120.171 821.667 120.971L849.817 137.231C852.627 138.851 854.357 141.861 854.357 145.101V188.001C854.357 191.251 852.627 194.251 849.817 195.871L821.667 212.131C820.287 212.931 818.717 213.351 817.117 213.351H749.087C747.487 213.351 745.927 212.931 744.537 212.131L716.397 195.871C713.587 194.251 711.857 191.241 711.857 188.001L711.887 187.981ZM804.197 151.831H762.077C757.057 151.831 752.987 155.901 752.987 160.921V169.741C752.987 174.761 757.057 178.831 762.077 178.831H804.197C809.217 178.831 813.287 174.761 813.287 169.741V160.921C813.287 155.901 809.217 151.831 804.197 151.831ZM758.987 44.5211V57.5411C758.987 62.5611 763.057 66.6311 768.077 66.6311H795.197C800.217 66.6311 804.287 62.5611 804.287 57.5411V44.5211C804.287 39.5011 800.217 35.4311 795.197 35.4311H768.077C763.057 35.4311 758.987 39.5011 758.987 44.5211Z" fill="#F2F4F8"/>
<path d="M1101.98 25.6711V142.731C1101.98 147.751 1097.91 151.821 1092.89 151.821H1069.97C1064.95 151.821 1060.88 147.751 1060.88 142.731V44.5111C1060.88 39.4911 1056.81 35.4211 1051.79 35.4211H1018.67C1013.65 35.4211 1009.58 39.4911 1009.58 44.5111V142.731C1009.58 147.751 1005.51 151.821 1000.49 151.821H977.567C972.547 151.821 968.477 147.751 968.477 142.731V9.42105C968.477 4.40105 972.547 0.331055 977.567 0.331055H997.167C1000.4 0.331055 1003.39 2.04105 1005.02 4.83105C1007.55 9.15105 1013.08 10.6111 1017.41 8.11105L1028.77 1.55105C1030.15 0.751048 1031.72 0.331055 1033.32 0.331055H1064.75C1066.35 0.331055 1067.91 0.751048 1069.3 1.55105L1097.44 17.8111C1100.25 19.4311 1101.98 22.4411 1101.98 25.6811V25.6711Z" fill="#F2F4F8"/>
<path d="M1251.48 125.821V142.741C1251.48 147.761 1247.41 151.831 1242.39 151.831H1164.22C1162.62 151.831 1161.06 151.411 1159.67 150.611L1131.53 134.351C1128.72 132.731 1126.99 129.721 1126.99 126.481V25.6811C1126.99 22.4311 1128.72 19.4311 1131.53 17.8111L1159.67 1.55105C1161.05 0.751048 1162.62 0.331055 1164.22 0.331055H1214.25C1215.85 0.331055 1217.41 0.751048 1218.8 1.55105L1246.94 17.8111C1249.75 19.4311 1251.48 22.4411 1251.48 25.6811V83.0411C1251.48 88.0611 1247.41 92.1311 1242.39 92.1311H1177.17C1172.15 92.1311 1168.08 96.201 1168.08 101.221V107.641C1168.08 112.661 1172.15 116.731 1177.17 116.731H1242.39C1247.41 116.731 1251.48 120.801 1251.48 125.821ZM1168.08 44.521V52.1411C1168.08 57.1611 1172.15 61.2311 1177.17 61.2311H1201.29C1206.31 61.2311 1210.38 57.1611 1210.38 52.1411V44.521C1210.38 39.501 1206.31 35.4311 1201.29 35.4311H1177.17C1172.15 35.4311 1168.08 39.501 1168.08 44.521Z" fill="#F2F4F8"/>
<path d="M868.886 139.741L907.886 7.92131C909.086 4.15131 912.596 1.59131 916.546 1.59131H936.456C942.616 1.59131 946.986 7.58131 945.116 13.4413L906.116 145.261C904.916 149.031 901.406 151.591 897.456 151.591H877.546C871.386 151.591 867.016 145.601 868.886 139.741Z" fill="#F2F4F8"/>
<path d="M530.727 116.631V151.731H441.027L406.227 131.631V20.331L441.027 0.230957H495.927L530.727 20.331V92.031H447.327V116.631H530.727ZM447.327 35.331V61.131H489.627V35.331H447.327Z" fill="#F2F4F8"/>
<path d="M171.308 22.9501C171.308 31.7938 165.623 39.6277 157.228 42.3754L56.0649 75.4395V76.0855L157.228 109.15C165.623 111.897 171.308 119.731 171.308 128.575C171.308 142.623 157.464 152.477 144.203 147.882L16.2437 103.581C8.02113 100.733 2.5 92.9814 2.5 84.2742V67.2599C2.5 58.5526 8.02113 50.8007 16.2437 47.9528L144.203 3.643C157.474 -0.951754 171.308 8.90195 171.308 22.9501Z" fill="#F2F4F8"/>
<path fill-rule="evenodd" clip-rule="evenodd" d="M168.808 22.9502C168.808 10.6196 156.667 1.97339 145.021 6.00553L17.0619 50.3153V50.3153C9.84601 52.8145 5 59.6182 5 67.26V84.2743C5 91.9161 9.84581 98.7196 17.0616 101.219V101.219L145.021 145.52C156.657 149.551 168.808 140.905 168.808 128.575C168.808 120.813 163.819 113.938 156.451 111.526L156.45 111.526L53.5649 77.8986V73.6266L156.45 39.9996L156.451 39.9993C163.819 37.5873 168.808 30.7121 168.808 22.9502ZM143.385 1.28071C158.281 -3.87666 173.808 7.18452 173.808 22.9502C173.808 32.8755 167.428 41.6676 158.006 44.7515L158.005 44.7518L63.1239 75.7626L158.005 106.773L158.006 106.774C167.428 109.858 173.808 118.65 173.808 128.575C173.808 144.341 158.271 155.402 143.385 150.245V150.245L15.4258 105.944C6.1966 102.747 0 94.047 0 84.2743V67.26C0 57.4873 6.19632 48.7871 15.4255 45.5906L143.385 1.28071Z" fill="#F2F4F8"/>
<path fill-rule="evenodd" clip-rule="evenodd" d="M135.315 18.8075L24.2225 58.6172L24.1606 58.6358C17.435 60.6605 13.2695 66.0169 13.2695 71.6912V81.0627C13.2695 86.5067 18.0715 91.7102 25.0675 93.808L25.1071 93.8198L134.359 130.555L132.766 135.294L23.591 98.5851C15.432 96.124 8.26953 89.5435 8.26953 81.0627V71.6912C8.26953 63.4473 14.2431 56.4261 22.6557 53.8673L133.629 14.1006L135.315 18.8075Z" fill="#070708"/>
<path fill-rule="evenodd" clip-rule="evenodd" d="M102.522 40.6691L27.0144 66.0493L26.9738 66.0615C23.031 67.2395 20.7266 70.3347 20.7266 73.4561V78.4876C20.7266 79.9912 21.389 81.7149 22.6625 83.2709C23.9273 84.8162 25.6689 86.0353 27.5522 86.6026L26.1101 91.3902C23.1908 90.5108 20.6301 88.682 18.7933 86.4377C16.9652 84.2042 15.7266 81.3968 15.7266 78.4876V73.4561C15.7266 67.7661 19.8414 62.9917 25.5 61.2835L100.929 35.9297L102.522 40.6691Z" fill="#070708"/>
<path fill-rule="evenodd" clip-rule="evenodd" d="M71.1267 59.9453L32.8948 72.5111L32.8649 72.5201C31.2751 72.9989 30.5508 74.1628 30.5508 75.1123V78.133H25.5508V75.1123C25.5508 71.5787 28.1024 68.7462 31.3905 67.7423L69.5655 55.1953L71.1267 59.9453Z" fill="#070708"/>
<path d="M187.145 129.494C187.145 120.65 192.829 112.816 201.225 110.068L302.388 77.0044V76.3584L201.225 43.2944C192.829 40.5466 187.145 32.7128 187.145 23.869C187.145 9.8209 200.988 -0.0328085 214.25 4.56195L342.209 48.8718C350.432 51.7196 355.953 59.4716 355.953 68.1788V85.1931C355.953 93.9004 350.432 101.652 342.209 104.5L214.25 148.81C200.979 153.405 187.145 143.551 187.145 129.503V129.494Z" fill="#F2F4F8"/>
<path fill-rule="evenodd" clip-rule="evenodd" d="M213.431 6.9243C201.795 2.89258 189.645 11.5388 189.645 23.8691C189.645 31.631 194.634 38.5063 202.001 40.9182C202.002 40.9183 202.002 40.9184 202.002 40.9185L304.888 74.5455V78.8176L202.002 112.445C202.002 112.445 202.002 112.445 202.001 112.445C194.634 114.857 189.645 121.732 189.645 129.494V129.503C189.645 141.834 201.786 150.48 213.432 146.448L341.391 102.138C348.607 99.6388 353.453 92.8351 353.453 85.1932V68.179C353.453 60.5371 348.607 53.7334 341.391 51.2342L213.431 6.9243ZM215.068 2.19969C200.181 -2.95776 184.645 8.1034 184.645 23.8691C184.645 33.7945 191.025 42.5866 200.447 45.6705L200.448 45.6708L295.329 76.6815L200.448 107.692L200.447 107.693C191.025 110.776 184.645 119.569 184.645 129.494V129.503C184.645 145.269 200.172 156.33 215.068 151.173L343.027 106.863C352.256 103.666 358.453 94.9659 358.453 85.1932V68.179C358.453 58.4063 352.256 49.706 343.027 46.5096L215.068 2.19969C215.068 2.19974 215.068 2.19965 215.068 2.19969Z" fill="#F2F4F8"/>
<path fill-rule="evenodd" clip-rule="evenodd" d="M222.762 18.8151L224.456 14.1108L334.889 53.8763C343.037 56.3436 350.184 62.9191 350.184 71.3908V80.7623C350.184 89.0125 344.201 96.0382 335.778 98.5921L225.324 136.21L223.712 131.477L334.25 93.8306L334.293 93.8177C341.019 91.793 345.184 86.4366 345.184 80.7623V71.3908C345.184 65.9467 340.382 60.7433 333.386 58.6455L333.321 58.626L222.762 18.8151Z" fill="#070708"/>
<path fill-rule="evenodd" clip-rule="evenodd" d="M335.789 69.1735C334.525 67.6282 332.783 66.409 330.9 65.8417L332.342 61.0542C335.261 61.9336 337.822 63.7624 339.659 66.0066C341.487 68.2402 342.725 71.0475 342.725 73.9567V78.9882C342.725 84.6782 338.61 89.4526 332.952 91.1609L257.523 116.515L255.93 111.775L331.437 86.395L331.478 86.3829C335.421 85.2049 337.725 82.1096 337.725 78.9882V73.9567C337.725 72.4532 337.063 70.7295 335.789 69.1735Z" fill="#070708"/>
<path fill-rule="evenodd" clip-rule="evenodd" d="M327.902 77.3322V74.3115H332.902V77.3322C332.902 80.8658 330.35 83.6983 327.062 84.7022L288.887 97.2492L287.326 92.4992L325.558 79.9335L325.588 79.9245C327.178 79.4456 327.902 78.2817 327.902 77.3322Z" fill="#070708"/>
</svg>
