<svg width="976" height="368" viewBox="0 0 976 368" fill="none" xmlns="http://www.w3.org/2000/svg">
<path d="M195.633 344.572C176.85 358.623 153.217 366.16 125.396 366.16C95.0109 366.16 69.6421 358.614 49.887 344.572H195.633Z" fill="#FBFBFC"/>
<path d="M393.837 344.572C379.449 357.697 361.534 366.16 342.342 366.16C317.521 366.16 297.758 358.399 284.872 344.572H393.837Z" fill="#FBFBFC"/>
<path d="M630.52 344.572C608.574 358.57 581.121 366.16 549.48 366.16C517.84 366.16 490.386 358.569 468.441 344.572H630.52Z" fill="#FBFBFC"/>
<path d="M87.0256 308.169C94.6574 318.865 104.235 326.714 115.607 331.334H34.6877C28.2711 324.524 22.7224 316.784 18.0765 308.169H87.0256Z" fill="#FBFBFC"/>
<path d="M226.484 308.169C221.827 316.784 216.381 324.525 210.18 331.334H168.353C180.231 326.727 190.473 318.895 198.897 308.169H226.484Z" fill="#FBFBFC"/>
<path d="M328.58 308.169C330.26 318.664 334.594 326.632 341.098 331.334H275.587C272.056 324.472 269.711 316.715 268.669 308.169H328.58Z" fill="#FBFBFC"/>
<path d="M419.566 308.169C416.053 316.379 411.453 324.219 405.979 331.334H372.234C379.548 326.654 386.32 318.716 392.087 308.169H419.566Z" fill="#FBFBFC"/>
<path d="M492.102 308.169C497.924 318.259 505.271 325.983 514.102 331.334H451.336C444.023 324.513 437.603 316.769 432.157 308.169H492.102Z" fill="#FBFBFC"/>
<path d="M666.797 308.169C661.35 316.77 654.931 324.513 647.618 331.334H584.957C593.84 325.983 601.253 318.259 607.14 308.169H666.797Z" fill="#FBFBFC"/>
<path d="M71.038 271.766C73.1681 280.244 75.9185 287.985 79.2597 294.931H11.9221C9.04709 287.694 6.71229 279.964 4.93191 271.766H71.038Z" fill="#FBFBFC"/>
<path d="M240.196 271.766C238.195 279.965 235.703 287.695 232.737 294.931H207.584C211.381 287.999 214.621 280.259 217.288 271.766H240.196Z" fill="#FBFBFC"/>
<path d="M327.795 294.931H268.049V271.766H327.795V294.931Z" fill="#FBFBFC"/>
<path d="M479.436 271.766C481.055 280.278 483.2 287.999 485.859 294.931H424.872C424.727 294.624 424.576 294.319 424.432 294.01C424.352 294.317 424.266 294.625 424.182 294.931H398.248C401.021 287.918 403.416 280.158 405.352 271.766H479.436Z" fill="#FBFBFC"/>
<path d="M682.591 271.766C680.38 279.954 677.528 287.684 674.085 294.931H613.459C616.154 287.999 618.332 280.278 619.977 271.766H682.591Z" fill="#FBFBFC"/>
<path d="M65.9283 235.363C66.3177 243.506 67.1177 251.238 68.3122 258.528H2.59868C1.57976 251.13 0.968649 243.403 0.77832 235.363H65.9283Z" fill="#FBFBFC"/>
<path d="M244.891 244.063C244.385 249.015 243.728 253.838 242.928 258.528H220.84C222.177 252.599 223.271 246.368 224.11 239.852L244.891 244.063Z" fill="#FBFBFC"/>
<path d="M327.795 258.528H268.049V235.363H327.795V258.528Z" fill="#FBFBFC"/>
<path d="M475.811 235.363C476.022 243.563 476.56 251.285 477.416 258.528H407.935C409.118 251.168 409.963 243.425 410.427 235.363H475.811Z" fill="#FBFBFC"/>
<path d="M688.027 235.363C687.691 243.392 686.848 251.12 685.533 258.528H622.032C622.903 251.285 623.447 243.563 623.662 235.363H688.027Z" fill="#FBFBFC"/>
<path d="M327.795 97.7591H409.363V121.442H327.795V222.125H268.049V121.442H224.844L232.943 205.12L212.681 207.75C198.654 138.282 187.222 113.548 139.424 111.443C91.9322 111.443 65.9869 149.369 65.6561 222.125H0.816311C3.25746 134.451 47.6863 87.2332 126.956 87.2332C138.905 87.2333 152.413 88.811 168.518 92.4945C186.595 96.3095 202.393 97.7591 222.552 97.7591C279.513 97.7587 301.818 59.8665 312.728 0.397949H327.795V97.7591Z" fill="#FBFBFC"/>
<path d="M549.48 87.2332C631.447 87.2336 685.966 139.791 688.122 222.125H623.729C622.572 150.208 596.694 113.02 549.48 113.02C502.773 113.02 476.904 150.207 475.748 222.125H410.835C412.991 139.791 467.513 87.2332 549.48 87.2332Z" fill="#FBFBFC"/>
<path fill-rule="evenodd" clip-rule="evenodd" d="M827.492 270.817C842.21 270.817 861.234 276.03 861.952 319.278H824.799C816.185 319.278 810.621 321.594 811.339 330.669C813.493 356.539 820.134 359.049 829.287 359.049C838.8 359.049 847.594 356.152 852.081 338.391C852.44 337.425 855.133 337.425 856.209 337.425C857.107 337.425 860.336 337.426 859.978 338.391C854.414 363.489 843.825 367.737 829.287 367.737C814.57 367.737 791.776 362.524 791.776 319.278C791.776 275.837 813.672 270.817 827.492 270.817ZM827.492 276.995C818.877 276.995 812.057 282.594 810.98 312.52H842.569C841.492 282.594 836.287 276.995 827.492 276.995Z" fill="#FBFBFC"/>
<path d="M894.515 272.555C895.412 272.555 895.592 275.257 895.592 276.03C895.592 276.609 895.413 279.119 894.515 279.119C886.259 279.119 886.798 284.139 888.413 290.124C890.747 299.778 898.105 324.876 899.54 331.44C899.899 333.371 901.694 333.178 902.412 331.44L919.463 285.49C919.643 284.718 921.617 284.718 922.694 284.718C923.771 284.718 925.745 284.718 926.104 285.49L942.616 331.44C943.154 333.178 945.128 333.178 945.487 331.44L956.794 290.317C958.589 284.139 958.949 279.119 950.693 279.119C949.975 279.119 949.795 276.995 949.795 276.03C949.795 274.871 949.975 272.555 950.693 272.555H974.564C975.281 272.556 975.64 274.871 975.64 276.03C975.64 276.995 975.281 279.118 974.564 279.119C967.026 279.119 964.872 284.718 963.256 290.51C961.462 296.301 941.185 365.596 941 366.385C940.642 367.158 939.385 367.159 938.488 367.159C937.591 367.159 936.334 366.772 936.154 366.385C934.718 359.627 920.001 320.049 918.027 312.713C917.848 310.975 915.515 310.975 914.976 312.906C914.257 314.453 895.598 365.597 895.413 366.385C895.233 367.158 894.156 367.159 893.079 367.159C892.003 367.159 890.926 367.158 890.567 366.385L868.311 290.51C866.516 283.946 864.183 279.119 856.465 279.119C855.927 279.118 855.568 277.188 855.568 276.03C855.568 274.678 855.927 272.556 856.465 272.555H894.515Z" fill="#FBFBFC"/>
<path d="M753.035 270.625C763.804 270.625 781.751 274.099 781.751 300.935V346.692C781.751 352.484 782.469 358.083 790.545 358.083C791.263 358.083 791.443 360.4 791.443 361.366C791.443 362.524 791.263 364.841 790.545 364.841H753.573C753.035 364.841 752.675 362.911 752.675 361.559C752.675 360.208 752.855 358.083 753.573 358.083C761.829 358.083 762.187 352.484 762.187 346.692V304.411C762.187 281.629 755.726 280.857 750.342 280.857C741.368 280.857 738.317 288.193 735.625 293.599V346.692C735.625 352.678 736.343 358.083 744.779 358.083C745.496 358.084 745.676 360.786 745.676 361.366C745.676 362.138 745.317 364.841 744.779 364.841H705.472C704.754 364.841 704.395 362.91 704.395 361.366C704.395 360.208 704.754 358.084 705.472 358.083C716.42 358.083 717.138 352.291 717.138 346.692V290.703C717.138 283.946 715.343 279.312 705.472 279.312C704.754 279.311 704.395 277.382 704.395 275.837C704.395 274.293 704.754 272.556 705.472 272.555H730.24C732.933 272.555 734.907 273.52 735.446 278.347C735.625 279.698 736.523 280.084 737.42 279.119C740.292 275.643 744.779 270.625 753.035 270.625Z" fill="#FBFBFC"/>
<path d="M679.5 367.202H661.989V348.367H679.5V367.202Z" fill="#FBFBFC"/>
</svg>
