<svg width="976" height="368" viewBox="0 0 976 368" fill="none" xmlns="http://www.w3.org/2000/svg">
<path d="M195.424 344.572C176.641 358.623 153.008 366.16 125.186 366.16C94.8014 366.16 69.4326 358.614 49.6775 344.572H195.424Z" fill="#1F1F1F"/>
<path d="M393.628 344.572C379.24 357.697 361.325 366.16 342.132 366.16C317.312 366.16 297.548 358.399 284.663 344.572H393.628Z" fill="#1F1F1F"/>
<path d="M630.31 344.572C608.365 358.57 580.911 366.16 549.271 366.16C517.631 366.16 490.177 358.569 468.231 344.572H630.31Z" fill="#1F1F1F"/>
<path d="M86.8161 308.169C94.4479 318.865 104.025 326.714 115.397 331.334H34.4783C28.0616 324.524 22.5129 316.784 17.867 308.169H86.8161Z" fill="#1F1F1F"/>
<path d="M226.275 308.169C221.618 316.784 216.172 324.525 209.971 331.334H168.144C180.021 326.727 190.263 318.895 198.688 308.169H226.275Z" fill="#1F1F1F"/>
<path d="M328.37 308.169C330.051 318.664 334.384 326.632 340.888 331.334H275.377C271.847 324.472 269.501 316.715 268.46 308.169H328.37Z" fill="#1F1F1F"/>
<path d="M419.357 308.169C415.844 316.379 411.243 324.219 405.769 331.334H372.024C379.338 326.654 386.111 318.716 391.877 308.169H419.357Z" fill="#1F1F1F"/>
<path d="M491.893 308.169C497.715 318.259 505.062 325.983 513.892 331.334H451.126C443.814 324.513 437.394 316.769 431.948 308.169H491.893Z" fill="#1F1F1F"/>
<path d="M666.588 308.169C661.141 316.77 654.722 324.513 647.409 331.334H584.747C593.63 325.983 601.043 318.259 606.93 308.169H666.588Z" fill="#1F1F1F"/>
<path d="M70.8285 271.766C72.9587 280.244 75.709 287.985 79.0503 294.931H11.7126C8.83761 287.694 6.50282 279.964 4.72244 271.766H70.8285Z" fill="#1F1F1F"/>
<path d="M239.986 271.766C237.986 279.965 235.494 287.695 232.527 294.931H207.375C211.171 287.999 214.412 280.259 217.078 271.766H239.986Z" fill="#1F1F1F"/>
<path d="M327.585 294.931H267.839V271.766H327.585V294.931Z" fill="#1F1F1F"/>
<path d="M479.226 271.766C480.846 280.278 482.99 287.999 485.65 294.931H424.663C424.517 294.624 424.366 294.319 424.223 294.01C424.143 294.317 424.056 294.625 423.973 294.931H398.038C400.812 287.918 403.207 280.158 405.142 271.766H479.226Z" fill="#1F1F1F"/>
<path d="M682.382 271.766C680.171 279.954 677.319 287.684 673.875 294.931H613.249C615.944 287.999 618.122 280.278 619.768 271.766H682.382Z" fill="#1F1F1F"/>
<path d="M65.7189 235.363C66.1083 243.506 66.9082 251.238 68.1027 258.528H2.38921C1.37028 251.13 0.759176 243.403 0.568848 235.363H65.7189Z" fill="#1F1F1F"/>
<path d="M244.681 244.063C244.175 249.015 243.519 253.838 242.718 258.528H220.63C221.968 252.599 223.061 246.368 223.901 239.852L244.681 244.063Z" fill="#1F1F1F"/>
<path d="M327.585 258.528H267.839V235.363H327.585V258.528Z" fill="#1F1F1F"/>
<path d="M475.601 235.363C475.812 243.563 476.35 251.285 477.206 258.528H407.726C408.908 251.168 409.754 243.425 410.217 235.363H475.601Z" fill="#1F1F1F"/>
<path d="M687.818 235.363C687.481 243.392 686.639 251.12 685.323 258.528H621.823C622.693 251.285 623.238 243.563 623.453 235.363H687.818Z" fill="#1F1F1F"/>
<path d="M327.585 97.7591H409.153V121.442H327.585V222.125H267.839V121.442H224.635L232.733 205.12L212.472 207.75C198.444 138.282 187.012 113.548 139.214 111.443C91.7228 111.443 65.7775 149.369 65.4466 222.125H0.606838C3.04799 134.451 47.4769 87.2332 126.747 87.2332C138.696 87.2333 152.203 88.811 168.308 92.4945C186.386 96.3095 202.184 97.7591 222.343 97.7591C279.303 97.7587 301.609 59.8665 312.519 0.397949H327.585V97.7591Z" fill="#1F1F1F"/>
<path d="M549.271 87.2332C631.238 87.2336 685.757 139.791 687.913 222.125H623.519C622.362 150.208 596.485 113.02 549.271 113.02C502.564 113.02 476.695 150.207 475.538 222.125H410.626C412.782 139.791 467.303 87.2332 549.271 87.2332Z" fill="#1F1F1F"/>
<path fill-rule="evenodd" clip-rule="evenodd" d="M827.283 270.817C842 270.817 861.024 276.03 861.742 319.278H824.59C815.975 319.278 810.412 321.594 811.13 330.669C813.283 356.539 819.924 359.049 829.078 359.049C838.59 359.049 847.384 356.152 851.871 338.391C852.23 337.425 854.923 337.425 856 337.425C856.898 337.425 860.127 337.426 859.768 338.391C854.204 363.489 843.616 367.737 829.078 367.737C814.361 367.737 791.566 362.524 791.566 319.278C791.566 275.837 813.463 270.817 827.283 270.817ZM827.283 276.995C818.668 276.995 811.847 282.594 810.77 312.52H842.359C841.282 282.594 836.077 276.995 827.283 276.995Z" fill="#1F1F1F"/>
<path d="M894.306 272.555C895.203 272.555 895.382 275.257 895.382 276.03C895.382 276.609 895.203 279.119 894.306 279.119C886.05 279.119 886.589 284.139 888.204 290.124C890.537 299.778 897.895 324.876 899.331 331.44C899.69 333.371 901.485 333.178 902.203 331.44L919.254 285.49C919.433 284.718 921.408 284.718 922.485 284.718C923.562 284.718 925.536 284.718 925.895 285.49L942.406 331.44C942.944 333.178 944.919 333.178 945.278 331.44L956.585 290.317C958.38 284.139 958.739 279.119 950.483 279.119C949.765 279.119 949.586 276.995 949.586 276.03C949.586 274.871 949.765 272.555 950.483 272.555H974.354C975.072 272.556 975.431 274.871 975.431 276.03C975.431 276.995 975.072 279.118 974.354 279.119C966.816 279.119 964.662 284.718 963.047 290.51C961.252 296.301 940.976 365.596 940.791 366.385C940.432 367.158 939.176 367.159 938.279 367.159C937.381 367.159 936.124 366.772 935.945 366.385C934.508 359.627 919.792 320.049 917.818 312.713C917.638 310.975 915.305 310.975 914.767 312.906C914.048 314.453 895.389 365.597 895.203 366.385C895.024 367.158 893.947 367.159 892.87 367.159C891.793 367.159 890.716 367.158 890.357 366.385L868.101 290.51C866.307 283.946 863.973 279.119 856.256 279.119C855.717 279.118 855.358 277.188 855.358 276.03C855.358 274.678 855.718 272.556 856.256 272.555H894.306Z" fill="#1F1F1F"/>
<path d="M752.825 270.625C763.594 270.625 781.541 274.099 781.541 300.935V346.692C781.541 352.484 782.26 358.083 790.336 358.083C791.054 358.083 791.233 360.4 791.233 361.366C791.233 362.524 791.054 364.841 790.336 364.841H753.364C752.825 364.841 752.466 362.911 752.466 361.559C752.466 360.208 752.646 358.083 753.364 358.083C761.62 358.083 761.978 352.484 761.978 346.692V304.411C761.978 281.629 755.517 280.857 750.133 280.857C741.159 280.857 738.107 288.193 735.415 293.599V346.692C735.415 352.678 736.133 358.083 744.569 358.083C745.287 358.084 745.467 360.786 745.467 361.366C745.467 362.138 745.107 364.841 744.569 364.841H705.262C704.545 364.841 704.186 362.91 704.186 361.366C704.186 360.208 704.545 358.084 705.262 358.083C716.211 358.083 716.929 352.291 716.929 346.692V290.703C716.929 283.946 715.133 279.312 705.262 279.312C704.545 279.311 704.186 277.382 704.186 275.837C704.186 274.293 704.545 272.556 705.262 272.555H730.031C732.723 272.555 734.698 273.52 735.236 278.347C735.416 279.698 736.313 280.084 737.21 279.119C740.082 275.643 744.569 270.625 752.825 270.625Z" fill="#1F1F1F"/>
<path d="M679.291 367.202H661.78V348.367H679.291V367.202Z" fill="#1F1F1F"/>
</svg>
