<svg width="1253" height="215" viewBox="0 0 1253 215" fill="none" xmlns="http://www.w3.org/2000/svg">
<path d="M687.66 26.4401V143.5C687.66 148.52 683.59 152.59 678.57 152.59H655.65C650.63 152.59 646.56 148.52 646.56 143.5V45.2801C646.56 40.2601 642.49 36.1901 637.47 36.1901H604.35C599.33 36.1901 595.26 40.2601 595.26 45.2801V143.5C595.26 148.52 591.19 152.59 586.17 152.59H563.25C558.23 152.59 554.16 148.52 554.16 143.5V10.1901C554.16 5.17009 558.23 1.1001 563.25 1.1001H582.85C586.08 1.1001 589.07 2.8101 590.7 5.6001C593.23 9.9201 598.76 11.3801 603.09 8.8801L614.45 2.32009C615.83 1.52009 617.4 1.1001 619 1.1001H650.43C652.03 1.1001 653.59 1.52009 654.98 2.32009L683.12 18.5801C685.93 20.2001 687.66 23.2101 687.66 26.4501V26.4401Z" fill="#070708"/>
<path d="M712.661 188.75V178.21C712.661 174.98 714.371 172 717.151 170.37L734.041 160.47C740.041 156.95 740.031 148.28 734.021 144.77L723.161 138.44C720.371 136.81 718.651 133.82 718.651 130.59V114.06C718.651 110.81 720.381 107.81 723.201 106.19L726.321 104.39C732.381 100.89 732.381 92.1401 726.321 88.6401L723.201 86.8401C720.391 85.2201 718.651 82.2101 718.651 78.9701V27.9701C718.651 24.7201 720.381 21.7201 723.191 20.1001L751.331 3.84012C752.711 3.04012 754.281 2.62012 755.881 2.62012H846.051C851.071 2.62012 855.141 6.69011 855.141 11.7101V16.5901C855.141 19.8301 853.421 22.8201 850.621 24.4501L841.241 29.9101C835.241 33.4101 835.211 42.0701 841.191 45.6001L841.661 45.8801C844.431 47.5201 846.131 50.4901 846.131 53.7101V75.6701C846.131 78.9201 844.401 81.9201 841.591 83.5401L813.441 99.8001C812.061 100.6 810.491 101.02 808.891 101.02H768.821C763.801 101.02 759.731 105.09 759.731 110.11V111.43C759.731 116.45 763.801 120.52 768.821 120.52H817.891C819.491 120.52 821.051 120.94 822.441 121.74L850.591 138C853.401 139.62 855.131 142.63 855.131 145.87V188.77C855.131 192.02 853.401 195.02 850.591 196.64L822.441 212.9C821.061 213.7 819.491 214.12 817.891 214.12H749.861C748.261 214.12 746.701 213.7 745.311 212.9L717.171 196.64C714.361 195.02 712.631 192.01 712.631 188.77L712.661 188.75ZM804.971 152.6H762.851C757.831 152.6 753.761 156.67 753.761 161.69V170.51C753.761 175.53 757.831 179.6 762.851 179.6H804.971C809.991 179.6 814.061 175.53 814.061 170.51V161.69C814.061 156.67 809.991 152.6 804.971 152.6ZM759.761 45.2901V58.3101C759.761 63.3301 763.831 67.4001 768.851 67.4001H795.971C800.991 67.4001 805.061 63.3301 805.061 58.3101V45.2901C805.061 40.2701 800.991 36.2001 795.971 36.2001H768.851C763.831 36.2001 759.761 40.2701 759.761 45.2901Z" fill="#070708"/>
<path d="M1102.75 26.4401V143.5C1102.75 148.52 1098.68 152.59 1093.66 152.59H1070.74C1065.72 152.59 1061.65 148.52 1061.65 143.5V45.2801C1061.65 40.2601 1057.58 36.1901 1052.56 36.1901H1019.44C1014.42 36.1901 1010.35 40.2601 1010.35 45.2801V143.5C1010.35 148.52 1006.28 152.59 1001.26 152.59H978.34C973.32 152.59 969.25 148.52 969.25 143.5V10.1901C969.25 5.17009 973.32 1.1001 978.34 1.1001H997.94C1001.17 1.1001 1004.16 2.8101 1005.79 5.6001C1008.32 9.9201 1013.85 11.3801 1018.18 8.8801L1029.54 2.32009C1030.92 1.52009 1032.49 1.1001 1034.09 1.1001H1065.52C1067.12 1.1001 1068.68 1.52009 1070.07 2.32009L1098.21 18.5801C1101.02 20.2001 1102.75 23.2101 1102.75 26.4501V26.4401Z" fill="#070708"/>
<path d="M1252.25 126.59V143.51C1252.25 148.53 1248.18 152.6 1243.16 152.6H1164.99C1163.39 152.6 1161.83 152.18 1160.44 151.38L1132.3 135.12C1129.49 133.5 1127.76 130.49 1127.76 127.25V26.4501C1127.76 23.2001 1129.49 20.2001 1132.3 18.5801L1160.44 2.32009C1161.82 1.52009 1163.39 1.1001 1164.99 1.1001H1215.02C1216.62 1.1001 1218.18 1.52009 1219.57 2.32009L1247.71 18.5801C1250.52 20.2001 1252.25 23.2101 1252.25 26.4501V83.8101C1252.25 88.8301 1248.18 92.9001 1243.16 92.9001H1177.94C1172.92 92.9001 1168.85 96.9701 1168.85 101.99V108.41C1168.85 113.43 1172.92 117.5 1177.94 117.5H1243.16C1248.18 117.5 1252.25 121.57 1252.25 126.59ZM1168.85 45.2901V52.9101C1168.85 57.9301 1172.92 62.0001 1177.94 62.0001H1202.06C1207.08 62.0001 1211.15 57.9301 1211.15 52.9101V45.2901C1211.15 40.2701 1207.08 36.2001 1202.06 36.2001H1177.94C1172.92 36.2001 1168.85 40.2701 1168.85 45.2901Z" fill="#070708"/>
<path d="M869.659 140.51L908.659 8.69035C909.859 4.92035 913.369 2.36035 917.319 2.36035H937.229C943.389 2.36035 947.759 8.35035 945.889 14.2104L906.889 146.03C905.689 149.8 902.179 152.36 898.229 152.36H878.319C872.159 152.36 867.789 146.37 869.659 140.51Z" fill="#070708"/>
<path d="M531.5 117.4V152.5H441.8L407 132.4V21.1L441.8 1H496.7L531.5 21.1V92.8H448.1V117.4H531.5ZM448.1 36.1V61.9H490.4V36.1H448.1Z" fill="#070708"/>
<path d="M172.082 23.7191C172.082 32.5629 166.397 40.3967 158.001 43.1445L56.8384 76.2085V76.8545L158.001 109.919C166.397 112.666 172.082 120.5 172.082 129.344C172.082 143.392 158.238 153.246 144.976 148.651L17.0171 104.35C8.79457 101.502 3.27344 93.7505 3.27344 85.0432V68.0289C3.27344 59.3217 8.79457 51.5697 17.0171 48.7219L144.976 4.41205C158.247 -0.182711 172.082 9.67099 172.082 23.7191Z" fill="#070708"/>
<path fill-rule="evenodd" clip-rule="evenodd" d="M169.582 23.7192C169.582 11.3887 157.44 2.74243 145.794 6.77457L17.8353 51.0843C10.6194 53.5836 5.77344 60.3872 5.77344 68.0291V85.0433C5.77344 92.6851 10.6192 99.4887 17.835 101.988L145.794 146.289C157.431 150.32 169.582 141.674 169.582 129.344C169.582 121.582 164.593 114.707 157.225 112.295L157.224 112.295L54.3384 78.6677V74.3956L157.224 40.7686L157.225 40.7683C164.593 38.3564 169.582 31.4811 169.582 23.7192ZM144.158 2.04975C159.054 -3.10762 174.582 7.95357 174.582 23.7192C174.582 33.6446 168.201 42.4367 158.779 45.5206L158.778 45.5209L63.8973 76.5316L158.778 107.542L158.779 107.543C168.201 110.627 174.582 119.419 174.582 129.344C174.582 145.11 159.045 156.171 144.158 151.014L16.1992 106.713C6.97004 103.516 0.773438 94.816 0.773438 85.0433V68.0291C0.773438 58.2564 6.96976 49.5561 16.199 46.3597L144.158 2.04975Z" fill="#070708"/>
<path fill-rule="evenodd" clip-rule="evenodd" d="M136.089 19.5765L24.9959 59.3862L24.934 59.4048C18.2084 61.4296 14.043 66.7859 14.043 72.4602V81.8317C14.043 87.2758 18.845 92.4792 25.841 94.577L25.8805 94.5889L135.132 131.324L133.539 136.063L24.3644 99.3542C16.2055 96.8931 9.04297 90.3126 9.04297 81.8317V72.4602C9.04297 64.2164 15.0165 57.1951 23.4291 54.6363L134.402 14.8696L136.089 19.5765Z" fill="#F2F4F8"/>
<path fill-rule="evenodd" clip-rule="evenodd" d="M103.296 41.4382L27.7879 66.8184L27.7472 66.8305C23.8044 68.0085 21.5 71.1038 21.5 74.2252V79.2566C21.5 80.7602 22.1624 82.4839 23.4359 84.0399C24.7007 85.5852 26.4424 86.8044 28.3257 87.3717L26.8835 92.1592C23.9642 91.2798 21.4036 89.451 19.5667 87.2068C17.7386 84.9732 16.5 82.1659 16.5 79.2566V74.2252C16.5 68.5352 20.6148 63.7608 26.2735 62.0525L101.703 36.6987L103.296 41.4382Z" fill="#F2F4F8"/>
<path fill-rule="evenodd" clip-rule="evenodd" d="M71.9001 60.7144L33.6682 73.2801L33.6383 73.2891C32.0485 73.768 31.3242 74.9318 31.3242 75.8813V78.902H26.3242V75.8813C26.3242 72.3477 28.8758 69.5152 32.164 68.5114L70.3389 55.9644L71.9001 60.7144Z" fill="#F2F4F8"/>
<path d="M187.918 130.263C187.918 121.419 193.603 113.585 201.998 110.838L303.161 77.7735V77.1275L201.998 44.0634C193.603 41.3157 187.918 33.4818 187.918 24.6381C187.918 10.5899 201.762 0.736234 215.023 5.33099L342.982 49.6408C351.205 52.4887 356.726 60.2406 356.726 68.9479V85.9621C356.726 94.6694 351.205 102.421 342.982 105.269L215.023 149.579C201.753 154.174 187.918 144.32 187.918 130.272V130.263Z" fill="#070708"/>
<path fill-rule="evenodd" clip-rule="evenodd" d="M214.205 7.69334C202.568 3.66162 190.418 12.3078 190.418 24.6382C190.418 32.4 195.407 39.2753 202.775 41.6872C202.775 41.6874 202.776 41.6875 202.776 41.6876L305.661 75.3145V79.5866L202.776 113.214C202.776 113.214 202.775 113.214 202.775 113.214C195.407 115.626 190.418 122.501 190.418 130.263V130.272C190.418 142.603 202.56 151.249 214.205 147.217L342.164 102.907C349.38 100.408 354.226 93.6041 354.226 85.9622V68.948C354.226 61.3061 349.38 54.5025 342.164 52.0033L214.205 7.69334ZM215.841 2.96874C200.955 -2.18872 185.418 8.87244 185.418 24.6382C185.418 34.5635 191.798 43.3556 201.221 46.4395L201.222 46.4398L296.102 77.4506L201.222 108.461L201.221 108.462C191.798 111.546 185.418 120.338 185.418 130.263V130.272C185.418 146.038 200.946 157.099 215.841 151.942L343.801 107.632C353.03 104.435 359.226 95.7349 359.226 85.9622V68.948C359.226 59.1753 353.03 50.4751 343.801 47.2786L215.841 2.96874C215.842 2.96878 215.841 2.96869 215.841 2.96874Z" fill="#070708"/>
<path fill-rule="evenodd" clip-rule="evenodd" d="M223.535 19.5842L225.229 14.8799L335.662 54.6453C343.81 57.1126 350.957 63.6881 350.957 72.1599V81.5313C350.957 89.7815 344.975 96.8073 336.552 99.3612L226.098 136.979L224.486 132.246L335.023 94.5997L335.066 94.5868C341.792 92.562 345.957 87.2057 345.957 81.5313V72.1599C345.957 66.7158 341.155 61.5123 334.159 59.4146L334.094 59.3951L223.535 19.5842Z" fill="#F2F4F8"/>
<path fill-rule="evenodd" clip-rule="evenodd" d="M336.563 69.9425C335.298 68.3972 333.556 67.178 331.673 66.6108L333.115 61.8232C336.034 62.7026 338.595 64.5314 340.432 66.7757C342.26 69.0092 343.499 71.8166 343.499 74.7258V79.7573C343.499 85.4472 339.384 90.2217 333.725 91.9299L258.296 117.284L256.703 112.544L332.211 87.1641L332.252 87.1519C336.194 85.9739 338.499 82.8787 338.499 79.7573V74.7258C338.499 73.2222 337.836 71.4985 336.563 69.9425Z" fill="#F2F4F8"/>
<path fill-rule="evenodd" clip-rule="evenodd" d="M328.675 78.1013V75.0806H333.675V78.1013C333.675 81.6349 331.124 84.4674 327.836 85.4712L289.661 98.0182L288.1 93.2682L326.331 80.7025L326.361 80.6935C327.951 80.2147 328.675 79.0508 328.675 78.1013Z" fill="#F2F4F8"/>
</svg>
